<svg width="20" height="21" viewBox="0 0 20 21" fill="none" xmlns="http://www.w3.org/2000/svg">
<path d="M10 0.0234375C15.523 0.0234375 20 4.50044 20 10.0234C20.0013 11.576 19.6405 13.1075 18.9463 14.4962C18.2521 15.885 17.2436 17.0927 16.001 18.0234H18C18.2652 18.0234 18.5196 18.1288 18.7071 18.3163C18.8946 18.5039 19 18.7582 19 19.0234C19 19.2887 18.8946 19.543 18.7071 19.7305C18.5196 19.9181 18.2652 20.0234 18 20.0234H10C4.477 20.0234 0 15.5464 0 10.0234C0 4.50044 4.477 0.0234375 10 0.0234375ZM10 12.0234C9.46957 12.0234 8.96086 12.2342 8.58578 12.6092C8.21071 12.9843 8 13.493 8 14.0234C8 14.5539 8.21071 15.0626 8.58578 15.4377C8.96086 15.8127 9.46957 16.0234 10 16.0234C10.5304 16.0234 11.0391 15.8127 11.4142 15.4377C11.7893 15.0626 12 14.5539 12 14.0234C12 13.493 11.7893 12.9843 11.4142 12.6092C11.0391 12.2342 10.5304 12.0234 10 12.0234ZM6 8.02344C5.46957 8.02344 4.96086 8.23415 4.58579 8.60922C4.21071 8.9843 4 9.493 4 10.0234C4 10.5539 4.21071 11.0626 4.58579 11.4377C4.96086 11.8127 5.46957 12.0234 6 12.0234C6.53043 12.0234 7.03914 11.8127 7.41421 11.4377C7.78928 11.0626 8 10.5539 8 10.0234C8 9.493 7.78928 8.9843 7.41421 8.60922C7.03914 8.23415 6.53043 8.02344 6 8.02344ZM14 8.02344C13.4696 8.02344 12.9609 8.23415 12.5858 8.60922C12.2107 8.9843 12 9.493 12 10.0234C12 10.5539 12.2107 11.0626 12.5858 11.4377C12.9609 11.8127 13.4696 12.0234 14 12.0234C14.5304 12.0234 15.0391 11.8127 15.4142 11.4377C15.7893 11.0626 16 10.5539 16 10.0234C16 9.493 15.7893 8.9843 15.4142 8.60922C15.0391 8.23415 14.5304 8.02344 14 8.02344ZM10 4.02344C9.46957 4.02344 8.96086 4.23415 8.58578 4.60922C8.21071 4.9843 8 5.493 8 6.02344C8 6.55387 8.21071 7.06258 8.58578 7.43765C8.96086 7.81272 9.46957 8.02344 10 8.02344C10.5304 8.02344 11.0391 7.81272 11.4142 7.43765C11.7893 7.06258 12 6.55387 12 6.02344C12 5.493 11.7893 4.9843 11.4142 4.60922C11.0391 4.23415 10.5304 4.02344 10 4.02344Z" fill="white"/>
</svg>
