<svg width="22" height="22" viewBox="0 0 22 22" fill="none" xmlns="http://www.w3.org/2000/svg">
<g opacity="0.5">
<path fill-rule="evenodd" clip-rule="evenodd" d="M1.17157 1.17157C0 2.34315 0 4.22876 0 8V13.9994C0 17.7706 0 19.6562 1.17157 20.8278C2.34315 21.9994 4.22876 21.9994 8 21.9994H13.9994C17.7706 21.9994 19.6562 21.9994 20.8278 20.8278C21.9994 19.6562 21.9994 17.7706 21.9994 13.9994V8C21.9994 5.06903 21.9994 3.27703 21.4494 2.07399V16.4995C20.3929 16.4995 19.3798 16.0799 18.6327 15.3328L17.8059 14.506C16.878 13.5781 16.414 13.1141 15.8641 12.9828C15.5587 12.9099 15.2404 12.9099 14.9351 12.9828C14.3851 13.1141 13.9212 13.5781 12.9932 14.506L12.9932 14.506L12.8687 14.6305C12.1279 15.3713 11.7574 15.7418 11.3521 15.7479C11.2147 15.75 11.0784 15.7237 10.9517 15.6708C10.5776 15.5146 10.3712 15.033 9.95846 14.07L9.89972 13.9329C8.96517 11.7523 8.4979 10.662 7.61058 10.3904C7.47427 10.3487 7.3339 10.3216 7.19185 10.3098C6.26711 10.2324 5.42833 11.0712 3.75077 12.7488L1.64995 14.8496V0.782715C1.47764 0.895349 1.31896 1.02419 1.17157 1.17157Z" fill="#7D7D7D"/>
<path d="M1 8C1 6.08611 1.00212 4.75129 1.13753 3.74416C1.26907 2.76579 1.50966 2.2477 1.87868 1.87868C2.2477 1.50966 2.76579 1.26907 3.74416 1.13753C4.75129 1.00212 6.08611 1 8 1H13.9994C15.9133 1 17.2481 1.00212 18.2552 1.13753C19.2336 1.26907 19.7517 1.50966 20.1207 1.87868C20.4897 2.2477 20.7303 2.76579 20.8618 3.74416C20.9972 4.75129 20.9994 6.08611 20.9994 8V13.9994C20.9994 15.9133 20.9972 17.2481 20.8618 18.2552C20.7303 19.2336 20.4897 19.7517 20.1207 20.1207C19.7517 20.4897 19.2336 20.7303 18.2552 20.8618C17.2481 20.9972 15.9133 20.9994 13.9994 20.9994H8C6.08611 20.9994 4.75129 20.9972 3.74416 20.8618C2.76579 20.7303 2.2477 20.4897 1.87868 20.1207C1.50966 19.7517 1.26907 19.2336 1.13753 18.2552C1.00212 17.2481 1 15.9133 1 13.9994V8Z" stroke="#7D7D7D" stroke-width="2"/>
<circle cx="14.2995" cy="7.69994" r="2.19994" fill="#7D7D7D"/>
</g>
</svg>
